<svg width="398" height="116" viewBox="0 0 398 116" fill="none" xmlns="http://www.w3.org/2000/svg">
<path d="M0 75.5975L7.55921 2.42735H20.3019L14.7405 56.4688H31.8027L29.8049 75.5975H0ZM32.448 75.5975L56.5295 2.42735H69.0562L78.0192 75.5975H65.3306L59.2292 13.821H64.1967L45.8926 75.5975H32.448ZM43.5709 62.845L48.6463 45.0751H66.0325L67.4364 62.845H43.5709ZM82.7526 75.5975L90.3118 2.42735H100.787L114.987 46.9566H110.56L115.149 2.42735H127.568L120.009 75.5975H109.534L95.3333 31.0682H99.7608L95.1713 75.5975H82.7526ZM127.499 75.5975L129.065 60.4408L154.604 12.9848L155.684 21.5561H133.6L135.598 2.42735H168.912L167.347 17.584L141.807 65.0401L140.727 56.4688H164.215L162.217 75.5975H127.499ZM164.513 75.5975L188.594 2.42735H201.121L210.084 75.5975H197.395L191.294 13.821H196.261L177.957 75.5975H164.513ZM175.636 62.845L180.711 45.0751H198.097L199.501 62.845H175.636ZM214.818 75.5975L222.377 2.42735H239.331C244.334 2.42735 248.204 4.55277 250.94 8.8036C253.675 12.9848 255.043 18.8732 255.043 26.469C255.043 32.6013 254.251 37.9671 252.668 42.5664C251.12 47.1657 248.906 50.7545 246.026 53.3329C243.183 55.9113 239.817 57.2005 235.929 57.2005H223.727L230.53 46.8521L227.56 75.5975H214.818ZM237.927 75.5975L230.152 48.9427H243.273L251.156 75.5975H237.927ZM230.206 49.7789L225.724 38.5943H236.577C238.341 38.5943 239.709 37.7581 240.681 36.0856C241.653 34.3435 242.139 31.9393 242.139 28.8731C242.139 26.2251 241.707 24.3436 240.843 23.2286C240.015 22.0439 238.863 21.4516 237.387 21.4516H227.506L234.309 9.95342L230.206 49.7789ZM279.023 77.27C275.099 77.27 271.698 75.8763 268.818 73.0888C265.974 70.3014 263.76 66.4687 262.177 61.5907C260.629 56.643 259.855 50.9636 259.855 44.5525C259.855 38.0717 260.431 32.1832 261.583 26.8871C262.771 21.5213 264.426 16.8872 266.55 12.9848C268.674 9.08235 271.194 6.08585 274.109 3.99528C277.025 1.83501 280.211 0.754883 283.666 0.754883C287.59 0.754883 290.974 2.1486 293.817 4.93604C296.697 7.72347 298.911 11.591 300.459 16.5387C302.042 21.4167 302.834 27.0613 302.834 33.4724C302.834 39.9532 302.24 45.8765 301.053 51.2423C299.901 56.5384 298.263 61.1377 296.139 65.0401C294.015 68.9425 291.496 71.9739 288.58 74.1341C285.664 76.2247 282.478 77.27 279.023 77.27ZM280.103 57.305C281.687 57.305 283.072 56.7127 284.26 55.528C285.484 54.3433 286.528 52.7057 287.392 50.6151C288.256 48.5246 288.904 46.1552 289.336 43.5072C289.768 40.7894 289.984 37.9323 289.984 34.9358C289.984 32.0787 289.678 29.6048 289.066 27.5143C288.49 25.354 287.644 23.6815 286.528 22.4969C285.448 21.3122 284.134 20.7199 282.586 20.7199C281.039 20.7199 279.653 21.3122 278.429 22.4969C277.205 23.6815 276.161 25.3192 275.297 27.4097C274.433 29.5003 273.785 31.9045 273.353 34.6222C272.921 37.2703 272.705 40.0926 272.705 43.0891C272.705 45.8765 272.993 48.3503 273.569 50.5106C274.181 52.6709 275.027 54.3433 276.107 55.528C277.223 56.7127 278.555 57.305 280.103 57.305ZM313.897 75.5975L319.459 21.5561H308.39L310.388 2.42735H345.268L343.27 21.5561H332.201L326.64 75.5975H313.897ZM360.132 29.6048H376.979L375.143 47.3747H358.296L360.132 29.6048ZM358.134 56.9914H377.087L375.143 75.5975H343.718L351.277 2.42735H382L380.056 21.0335H361.86L358.134 56.9914Z" fill="black"/>
<path d="M282.596 115L283.696 109.544L297.16 99.072C298.216 98.2213 299.037 97.488 299.624 96.872C300.21 96.256 300.621 95.6693 300.856 95.112C301.12 94.5547 301.252 93.9973 301.252 93.44C301.252 92.5893 300.929 91.9 300.284 91.372C299.638 90.844 298.714 90.58 297.512 90.58C296.456 90.58 295.429 90.8587 294.432 91.416C293.464 91.944 292.584 92.692 291.792 93.66L285.984 89.832C287.216 87.9253 288.961 86.4147 291.22 85.3C293.478 84.156 296.016 83.584 298.832 83.584C301.061 83.584 303.026 83.9507 304.728 84.684C306.458 85.4173 307.793 86.4293 308.732 87.72C309.7 88.9813 310.184 90.448 310.184 92.12C310.184 93.352 309.964 94.54 309.524 95.684C309.084 96.828 308.336 98.0013 307.28 99.204C306.253 100.377 304.816 101.668 302.968 103.076L292.452 111.216L291.264 108.092H307.984L306.576 115H282.596ZM321.123 115.616C318.777 115.616 316.738 115.147 315.007 114.208C313.277 113.269 311.942 111.92 311.003 110.16C310.065 108.4 309.595 106.259 309.595 103.736C309.595 100.92 309.991 98.2947 310.783 95.86C311.575 93.396 312.705 91.2547 314.171 89.436C315.638 87.588 317.369 86.1507 319.363 85.124C321.358 84.0973 323.558 83.584 325.963 83.584C328.31 83.584 330.334 84.0533 332.035 84.992C333.766 85.9307 335.101 87.28 336.039 89.04C337.007 90.8 337.491 92.9413 337.491 95.464C337.491 98.28 337.081 100.92 336.259 103.384C335.467 105.819 334.338 107.96 332.871 109.808C331.434 111.627 329.718 113.049 327.723 114.076C325.729 115.103 323.529 115.616 321.123 115.616ZM321.959 108.488C323.103 108.488 324.101 108.063 324.951 107.212C325.802 106.332 326.506 105.232 327.063 103.912C327.621 102.592 328.031 101.199 328.295 99.732C328.589 98.2653 328.735 96.916 328.735 95.684C328.735 93.8947 328.398 92.6187 327.723 91.856C327.078 91.0933 326.213 90.712 325.127 90.712C323.983 90.712 322.986 91.152 322.135 92.032C321.285 92.8827 320.581 93.968 320.023 95.288C319.466 96.608 319.041 98.0013 318.747 99.468C318.483 100.935 318.351 102.284 318.351 103.516C318.351 105.305 318.674 106.581 319.319 107.344C319.994 108.107 320.874 108.488 321.959 108.488ZM349.044 115.616C346.698 115.616 344.659 115.147 342.928 114.208C341.198 113.269 339.863 111.92 338.924 110.16C337.986 108.4 337.516 106.259 337.516 103.736C337.516 100.92 337.912 98.2947 338.704 95.86C339.496 93.396 340.626 91.2547 342.092 89.436C343.559 87.588 345.29 86.1507 347.284 85.124C349.279 84.0973 351.479 83.584 353.884 83.584C356.231 83.584 358.255 84.0533 359.956 84.992C361.687 85.9307 363.022 87.28 363.96 89.04C364.928 90.8 365.412 92.9413 365.412 95.464C365.412 98.28 365.002 100.92 364.18 103.384C363.388 105.819 362.259 107.96 360.793 109.808C359.355 111.627 357.639 113.049 355.644 114.076C353.65 115.103 351.45 115.616 349.044 115.616ZM349.88 108.488C351.024 108.488 352.022 108.063 352.872 107.212C353.723 106.332 354.427 105.232 354.984 103.912C355.542 102.592 355.952 101.199 356.216 99.732C356.51 98.2653 356.656 96.916 356.656 95.684C356.656 93.8947 356.319 92.6187 355.644 91.856C354.999 91.0933 354.134 90.712 353.048 90.712C351.904 90.712 350.907 91.152 350.056 92.032C349.206 92.8827 348.502 93.968 347.944 95.288C347.387 96.608 346.962 98.0013 346.668 99.468C346.404 100.935 346.272 102.284 346.272 103.516C346.272 105.305 346.595 106.581 347.24 107.344C347.915 108.107 348.795 108.488 349.88 108.488ZM367.332 115L384.58 87.412L386.428 91.108H370.808L375.208 87.104L373.448 95.86H366.012L368.344 84.2H393.864L392.764 89.656L377.1 115H367.332Z" fill="black"/>
</svg>
